<svg xmlns="http://www.w3.org/2000/svg" xmlns:xlink="http://www.w3.org/1999/xlink" width="128" zoomAndPan="magnify" viewBox="0 0 96 95.999999" height="128" preserveAspectRatio="xMidYMid meet" version="1.0"><defs><clipPath id="79087432d1"><path d="M 18.75 0 L 77.25 0 C 87.605469 0 96 8.394531 96 18.75 L 96 77.25 C 96 87.605469 87.605469 96 77.25 96 L 18.75 96 C 8.394531 96 0 87.605469 0 77.25 L 0 18.75 C 0 8.394531 8.394531 0 18.75 0 Z M 18.75 0 " clip-rule="nonzero"/></clipPath><clipPath id="bd897bbf12"><path d="M 0 0 L 96 0 L 96 96 L 0 96 Z M 0 0 " clip-rule="nonzero"/></clipPath><clipPath id="68eea84164"><path d="M 18.75 0 L 77.25 0 C 87.605469 0 96 8.394531 96 18.75 L 96 77.25 C 96 87.605469 87.605469 96 77.25 96 L 18.75 96 C 8.394531 96 0 87.605469 0 77.25 L 0 18.75 C 0 8.394531 8.394531 0 18.75 0 Z M 18.75 0 " clip-rule="nonzero"/></clipPath><clipPath id="4b974ceb00"><rect x="0" width="96" y="0" height="96"/></clipPath><clipPath id="d2eedec569"><path d="M 21.253906 16.40625 L 74.503906 16.40625 L 74.503906 83.15625 L 21.253906 83.15625 Z M 21.253906 16.40625 " clip-rule="nonzero"/></clipPath></defs><g clip-path="url(#79087432d1)"><g transform="matrix(1, 0, 0, 1, 0, -0.000000000000008101)"><g clip-path="url(#4b974ceb00)"><g clip-path="url(#bd897bbf12)"><g clip-path="url(#68eea84164)"><rect x="-21.12" width="138.24" fill="#cb6ce6" height="138.239999" y="-21.12" fill-opacity="1"/></g></g></g></g></g><g clip-path="url(#d2eedec569)"><path fill="#ffffff" d="M 47.992188 60.523438 L 74.734375 83.253906 L 74.734375 21.75 C 74.734375 18.796875 72.339844 16.402344 69.386719 16.402344 L 26.601562 16.402344 C 23.648438 16.402344 21.253906 18.796875 21.253906 21.75 L 21.253906 83.253906 C 21.253906 83.253906 47.992188 60.527344 47.992188 60.527344 Z M 47.992188 60.523438 " fill-opacity="1" fill-rule="nonzero"/></g></svg>